<mxfile host="app.diagrams.net" modified="2023-10-23T20:28:40.547Z" agent="Mozilla/5.0 (Windows NT 10.0; Win64; x64) AppleWebKit/537.36 (KHTML, like Gecko) Chrome/118.0.0.0 Safari/537.36 Edg/118.0.2088.57" version="22.0.6" etag="AAcqiKQwJg-cZXLwZgcW" type="github">
  <diagram name="Page-1" id="SbHMAceTXBNfmyk7gnIv">
    <mxGraphModel>
      <root>
        <mxCell id="0" />
        <mxCell id="1" parent="0" />
      </root>
    </mxGraphModel>
  </diagram>
</mxfile>
